# xmcd
#
# Track frame offsets:
#	150
#	25050
#	42779
#	68575
#	103189
#	139375
#	160920
#	179970
#	196021
#	214958
#	246309
#	261985
#
# Disc length: 3930 seconds
#
# Revision: 1
# Processed by: cddbd v1.4PL0 Copyright (c) Steve Scherf et al.
# Submitted via: audiograbber 1.80
#
DISCID=b50f580c
DTITLE=Jimmy "t99" Nelson - Take Your Pick
DYEAR=1900
DGENRE=
TTITLE0=Nasty Mean
TTITLE1=Come On
TTITLE2=Think Again
TTITLE3=Deep Sleeping
TTITLE4=Son Listen to Me
TTITLE5=Cabaret
TTITLE6=Would You Believe
TTITLE7=Candy
TTITLE8=Mornin' Noon and Night
TTITLE9=Hot Tamale Man
TTITLE10=Someday You'll Be Sorry
TTITLE11=By Christmas I'll Be Home
EXTD=
EXTT0=
EXTT1=
EXTT2=
EXTT3=
EXTT4=
EXTT5=
EXTT6=
EXTT7=
EXTT8=
EXTT9=
EXTT10=
EXTT11=
PLAYORDER=
